<svg xmlns="http://www.w3.org/2000/svg" xmlns:xlink="http://www.w3.org/1999/xlink" width="116" zoomAndPan="magnify" viewBox="0 0 87 30.000001" height="40" preserveAspectRatio="xMidYMid meet" version="1.0"><defs><g/><clipPath id="de5f15e9dc"><path d="M 1.402344 6 L 31.65625 6 L 31.65625 29.03125 L 1.402344 29.03125 Z M 1.402344 6 " clip-rule="nonzero"/></clipPath><clipPath id="671fe6118a"><path d="M 15 1.625 L 24 1.625 L 24 10 L 15 10 Z M 15 1.625 " clip-rule="nonzero"/></clipPath><clipPath id="6b4dacc798"><path d="M 3 0.277344 L 23.316406 0.277344 L 23.316406 29.03125 L 3 29.03125 Z M 3 0.277344 " clip-rule="nonzero"/></clipPath><clipPath id="bbb7aeaf5a"><path d="M 15.730469 0.0585938 L 36.050781 0.0585938 L 36.050781 29.03125 L 15.730469 29.03125 Z M 15.730469 0.0585938 " clip-rule="nonzero"/></clipPath><clipPath id="9ae85363a0"><path d="M 33.019531 0.132812 L 53.339844 0.132812 L 53.339844 29.03125 L 33.019531 29.03125 Z M 33.019531 0.132812 " clip-rule="nonzero"/></clipPath><clipPath id="8065082640"><path d="M 47.976562 0.132812 L 68.300781 0.132812 L 68.300781 29.03125 L 47.976562 29.03125 Z M 47.976562 0.132812 " clip-rule="nonzero"/></clipPath><clipPath id="d275efc844"><path d="M 71 4.195312 L 73 4.195312 L 73 6 L 71 6 Z M 71 4.195312 " clip-rule="nonzero"/></clipPath><clipPath id="ae877082ad"><path d="M 70 4.195312 L 72 4.195312 L 72 6 L 70 6 Z M 70 4.195312 " clip-rule="nonzero"/></clipPath><clipPath id="cec1a1fbb3"><path d="M 70 4.195312 L 71 4.195312 L 71 5 L 70 5 Z M 70 4.195312 " clip-rule="nonzero"/></clipPath><clipPath id="c8ae704a0e"><path d="M 67 16 L 72 16 L 72 17.257812 L 67 17.257812 Z M 67 16 " clip-rule="nonzero"/></clipPath><clipPath id="12f4c0f524"><path d="M 64 4.195312 L 70 4.195312 L 70 16 L 64 16 Z M 64 4.195312 " clip-rule="nonzero"/></clipPath><clipPath id="85ac3de85d"><path d="M 63 16 L 64 16 L 64 17.257812 L 63 17.257812 Z M 63 16 " clip-rule="nonzero"/></clipPath><clipPath id="74373e55ad"><path d="M 62.75 16 L 64 16 L 64 17 L 62.75 17 Z M 62.75 16 " clip-rule="nonzero"/></clipPath><clipPath id="87a39ca35f"><path d="M 75 4.195312 L 76 4.195312 L 76 5 L 75 5 Z M 75 4.195312 " clip-rule="nonzero"/></clipPath><clipPath id="d1b47e6e05"><path d="M 75 4.195312 L 76.539062 4.195312 L 76.539062 6 L 75 6 Z M 75 4.195312 " clip-rule="nonzero"/></clipPath><clipPath id="a46bbe228f"><path d="M 74 4.195312 L 76 4.195312 L 76 6 L 74 6 Z M 74 4.195312 " clip-rule="nonzero"/></clipPath></defs><g clip-path="url(#de5f15e9dc)"><path stroke-linecap="butt" transform="matrix(0.0601253, 0, 0, 0.0601253, -7.525848, 1.62692)" fill-opacity="1" fill="#ffffff" fill-rule="nonzero" stroke-linejoin="miter" d="M 312.278529 594.364548 L 379.066109 634.190216 L 295.32176 631.331604 L 273.557325 604.174786 L 323.063294 463.388126 L 238.344417 327.798942 L 177.209093 487.166583 L 50.260715 576.823063 L 97.947567 615.089488 L 10.110205 615.219425 L 0.494872 590.92122 L 144.529956 449.095064 L 190.592596 279.917184 L 338.980567 94.04241 L 390.630496 98.460266 L 480.54685 163.81854 L 619.64433 129.840033 L 631.07878 94.627126 L 649.919634 82.088213 L 650.049571 147.446487 L 478.078048 193.963907 L 423.244665 170.640229 L 481.456408 232.165364 L 627.570483 216.702869 L 634.587077 180.255561 L 650.11454 170.185449 L 649.919634 242.365412 L 475.284404 282.775797 L 400.115892 223.00481 L 307.665768 288.882832 L 380.105605 444.872113 Z M 312.278529 594.364548 " stroke="#000000" stroke-width="1" stroke-opacity="1" stroke-miterlimit="4"/></g><g clip-path="url(#671fe6118a)"><path fill="#ffffff" d="M 23.386719 5.328125 C 23.386719 7.371094 21.730469 9.027344 19.683594 9.027344 C 17.640625 9.027344 15.984375 7.371094 15.984375 5.328125 C 15.984375 3.285156 17.640625 1.625 19.683594 1.625 C 21.730469 1.625 23.386719 3.285156 23.386719 5.328125 Z M 23.386719 5.328125 " fill-opacity="1" fill-rule="nonzero"/></g><g fill="#ff00ff" fill-opacity="1"><g transform="translate(29.73308, 16.525087)"><g><path d="M 0.726562 0 L 2.46875 0 L 2.46875 -10.171875 L 0.726562 -10.171875 Z M 0.726562 0 "/></g></g></g><g fill="#ff00ff" fill-opacity="1"><g transform="translate(34.484108, 16.525087)"><g><path d="M 2.46875 -8.425781 L 5.957031 -8.425781 L 5.957031 -1.742188 L 7.699219 -1.742188 L 7.699219 -8.425781 L 5.957031 -8.425781 L 5.957031 -10.171875 L 0.726562 -10.171875 L 0.726562 0 L 5.957031 0 L 5.957031 -1.742188 L 2.46875 -1.742188 Z M 2.46875 -8.425781 "/></g></g></g><g fill="#ff00ff" fill-opacity="1"><g transform="translate(44.450868, 16.525087)"><g><path d="M 0.726562 -10.171875 L 0.726562 0 L 7.699219 0 L 7.699219 -1.742188 L 2.46875 -1.742188 L 2.46875 -4.214844 L 5.957031 -4.214844 L 5.957031 -5.957031 L 2.46875 -5.957031 L 2.46875 -8.425781 L 7.699219 -8.425781 L 7.699219 -10.171875 Z M 0.726562 -10.171875 "/></g></g></g><g fill="#ff00ff" fill-opacity="1"><g transform="translate(54.432155, 16.525087)"><g><path d="M 2.46875 -8.425781 L 5.957031 -8.425781 L 5.957031 -5.957031 L 2.46875 -5.957031 L 2.46875 -8.425781 L 0.726562 -8.425781 L 0.726562 0 L 2.46875 0 L 2.46875 -4.214844 L 5.957031 -4.214844 L 5.957031 0 L 7.699219 0 L 7.699219 -8.425781 L 5.957031 -8.425781 L 5.957031 -10.171875 L 2.46875 -10.171875 Z M 2.46875 -8.425781 "/></g></g></g><g fill="#00ffff" fill-opacity="1"><g transform="translate(30.825741, 16.797517)"><g><path d="M 0.726562 0 L 2.46875 0 L 2.46875 -10.171875 L 0.726562 -10.171875 Z M 0.726562 0 "/></g></g></g><g fill="#00ffff" fill-opacity="1"><g transform="translate(35.576769, 16.797517)"><g><path d="M 2.46875 -8.425781 L 5.957031 -8.425781 L 5.957031 -1.742188 L 7.699219 -1.742188 L 7.699219 -8.425781 L 5.957031 -8.425781 L 5.957031 -10.171875 L 0.726562 -10.171875 L 0.726562 0 L 5.957031 0 L 5.957031 -1.742188 L 2.46875 -1.742188 Z M 2.46875 -8.425781 "/></g></g></g><g fill="#00ffff" fill-opacity="1"><g transform="translate(45.543528, 16.797517)"><g><path d="M 0.726562 -10.171875 L 0.726562 0 L 7.699219 0 L 7.699219 -1.742188 L 2.46875 -1.742188 L 2.46875 -4.214844 L 5.957031 -4.214844 L 5.957031 -5.957031 L 2.46875 -5.957031 L 2.46875 -8.425781 L 7.699219 -8.425781 L 7.699219 -10.171875 Z M 0.726562 -10.171875 "/></g></g></g><g fill="#00ffff" fill-opacity="1"><g transform="translate(55.524815, 16.797517)"><g><path d="M 2.46875 -8.425781 L 5.957031 -8.425781 L 5.957031 -5.957031 L 2.46875 -5.957031 L 2.46875 -8.425781 L 0.726562 -8.425781 L 0.726562 0 L 2.46875 0 L 2.46875 -4.214844 L 5.957031 -4.214844 L 5.957031 0 L 7.699219 0 L 7.699219 -8.425781 L 5.957031 -8.425781 L 5.957031 -10.171875 L 2.46875 -10.171875 Z M 2.46875 -8.425781 "/></g></g></g><g fill="#ffffff" fill-opacity="1"><g transform="translate(30.27941, 16.661302)"><g><path d="M 0.726562 0 L 2.46875 0 L 2.46875 -10.171875 L 0.726562 -10.171875 Z M 0.726562 0 "/></g></g></g><g fill="#ffffff" fill-opacity="1"><g transform="translate(35.030438, 16.661302)"><g><path d="M 2.46875 -8.425781 L 5.957031 -8.425781 L 5.957031 -1.742188 L 7.699219 -1.742188 L 7.699219 -8.425781 L 5.957031 -8.425781 L 5.957031 -10.171875 L 0.726562 -10.171875 L 0.726562 0 L 5.957031 0 L 5.957031 -1.742188 L 2.46875 -1.742188 Z M 2.46875 -8.425781 "/></g></g></g><g fill="#ffffff" fill-opacity="1"><g transform="translate(44.997198, 16.661302)"><g><path d="M 0.726562 -10.171875 L 0.726562 0 L 7.699219 0 L 7.699219 -1.742188 L 2.46875 -1.742188 L 2.46875 -4.214844 L 5.957031 -4.214844 L 5.957031 -5.957031 L 2.46875 -5.957031 L 2.46875 -8.425781 L 7.699219 -8.425781 L 7.699219 -10.171875 Z M 0.726562 -10.171875 "/></g></g></g><g fill="#ffffff" fill-opacity="1"><g transform="translate(54.978485, 16.661302)"><g><path d="M 2.46875 -8.425781 L 5.957031 -8.425781 L 5.957031 -5.957031 L 2.46875 -5.957031 L 2.46875 -8.425781 L 0.726562 -8.425781 L 0.726562 0 L 2.46875 0 L 2.46875 -4.214844 L 5.957031 -4.214844 L 5.957031 0 L 7.699219 0 L 7.699219 -8.425781 L 5.957031 -8.425781 L 5.957031 -10.171875 L 2.46875 -10.171875 Z M 2.46875 -8.425781 "/></g></g></g><g clip-path="url(#6b4dacc798)"><path fill="#ffffff" d="M 10.414062 0.273438 C 9.683594 0.273438 8.992188 1.21875 8.417969 2.96875 C 7.84375 1.21875 7.152344 0.273438 6.421875 0.273438 C 5.496094 0.273438 4.632812 1.792969 3.988281 4.550781 C 3.351562 7.289062 3.003906 10.925781 3.003906 14.792969 C 3.003906 18.660156 3.351562 22.296875 3.988281 25.03125 C 4.632812 27.789062 5.496094 29.308594 6.421875 29.308594 C 7.152344 29.308594 7.84375 28.367188 8.417969 26.617188 C 8.992188 28.367188 9.683594 29.308594 10.414062 29.308594 C 10.894531 29.308594 11.359375 28.902344 11.785156 28.121094 C 12.207031 28.902344 12.671875 29.308594 13.152344 29.308594 C 13.753906 29.308594 14.332031 28.667969 14.835938 27.464844 C 15.339844 28.667969 15.917969 29.308594 16.519531 29.308594 C 17.121094 29.308594 17.695312 28.667969 18.199219 27.464844 C 18.707031 28.667969 19.28125 29.308594 19.882812 29.308594 C 20.808594 29.308594 21.675781 27.789062 22.316406 25.03125 C 22.953125 22.296875 23.304688 18.660156 23.304688 14.792969 C 23.304688 10.925781 22.953125 7.289062 22.316406 4.550781 C 21.675781 1.792969 20.808594 0.273438 19.882812 0.273438 C 19.28125 0.273438 18.707031 0.914062 18.199219 2.121094 C 17.695312 0.914062 17.121094 0.273438 16.519531 0.273438 C 15.917969 0.273438 15.339844 0.914062 14.835938 2.121094 C 14.332031 0.914062 13.753906 0.273438 13.152344 0.273438 C 12.671875 0.273438 12.207031 0.683594 11.785156 1.464844 C 11.359375 0.683594 10.894531 0.273438 10.414062 0.273438 Z M 6.421875 29.199219 C 4.597656 29.199219 3.113281 22.738281 3.113281 14.792969 C 3.113281 6.847656 4.597656 0.382812 6.421875 0.382812 C 7.148438 0.382812 7.820312 1.40625 8.363281 3.132812 C 8.230469 3.5625 8.101562 4.035156 7.980469 4.550781 C 7.34375 7.289062 6.992188 10.925781 6.992188 14.792969 C 6.992188 18.660156 7.34375 22.296875 7.980469 25.03125 C 8.101562 25.550781 8.230469 26.023438 8.363281 26.453125 C 7.820312 28.179688 7.148438 29.199219 6.421875 29.199219 Z M 13.722656 14.792969 C 13.722656 16.769531 13.632812 18.65625 13.464844 20.371094 C 13.300781 18.65625 13.207031 16.769531 13.207031 14.792969 C 13.207031 12.816406 13.300781 10.929688 13.464844 9.210938 C 13.632812 10.929688 13.722656 12.816406 13.722656 14.792969 Z M 13.519531 8.683594 C 13.804688 6.054688 14.265625 3.859375 14.835938 2.390625 C 15.808594 4.898438 16.464844 9.519531 16.464844 14.792969 C 16.464844 20.066406 15.808594 24.683594 14.835938 27.195312 C 14.265625 25.722656 13.804688 23.527344 13.519531 20.902344 C 13.726562 19.011719 13.832031 16.9375 13.832031 14.792969 C 13.832031 12.644531 13.726562 10.570312 13.519531 8.683594 Z M 13.097656 14.792969 C 13.097656 16.9375 13.207031 19.011719 13.410156 20.902344 C 13.078125 23.992188 12.5 26.488281 11.785156 27.910156 C 10.640625 25.636719 9.84375 20.613281 9.84375 14.792969 C 9.84375 8.972656 10.640625 3.949219 11.785156 1.675781 C 12.5 3.09375 13.078125 5.589844 13.410156 8.683594 C 13.207031 10.570312 13.097656 12.644531 13.097656 14.792969 Z M 8.417969 3.304688 C 9.214844 5.9375 9.734375 10.105469 9.734375 14.792969 C 9.734375 19.476562 9.214844 23.648438 8.417969 26.28125 C 7.621094 23.648438 7.101562 19.476562 7.101562 14.792969 C 7.101562 10.105469 7.621094 5.9375 8.417969 3.304688 Z M 10.414062 29.199219 C 9.6875 29.199219 9.015625 28.179688 8.472656 26.453125 C 8.605469 26.023438 8.734375 25.550781 8.855469 25.03125 C 9.347656 22.917969 9.667969 20.269531 9.789062 17.390625 C 9.910156 20.269531 10.230469 22.917969 10.71875 25.03125 C 11.015625 26.296875 11.355469 27.300781 11.726562 28.015625 C 11.324219 28.777344 10.878906 29.199219 10.414062 29.199219 Z M 13.152344 29.199219 C 12.6875 29.199219 12.242188 28.777344 11.839844 28.015625 C 12.210938 27.300781 12.550781 26.296875 12.847656 25.03125 C 13.101562 23.941406 13.308594 22.707031 13.464844 21.375 C 13.625 22.707031 13.832031 23.941406 14.085938 25.03125 C 14.296875 25.933594 14.53125 26.703125 14.78125 27.332031 C 14.300781 28.519531 13.746094 29.199219 13.152344 29.199219 Z M 16.519531 29.199219 C 15.925781 29.199219 15.371094 28.519531 14.890625 27.332031 C 15.140625 26.703125 15.375 25.933594 15.585938 25.03125 C 16.078125 22.917969 16.398438 20.269531 16.519531 17.390625 C 16.640625 20.269531 16.960938 22.917969 17.449219 25.03125 C 17.660156 25.933594 17.894531 26.703125 18.148438 27.332031 C 17.664062 28.519531 17.109375 29.199219 16.519531 29.199219 Z M 16.574219 14.792969 C 16.574219 9.519531 17.226562 4.898438 18.199219 2.390625 C 19.175781 4.898438 19.828125 9.519531 19.828125 14.792969 C 19.828125 20.066406 19.175781 24.683594 18.199219 27.195312 C 17.226562 24.683594 16.574219 20.066406 16.574219 14.792969 Z M 19.882812 0.382812 C 21.707031 0.382812 23.195312 6.847656 23.195312 14.792969 C 23.195312 22.738281 21.707031 29.199219 19.882812 29.199219 C 19.292969 29.199219 18.734375 28.519531 18.253906 27.332031 C 18.507812 26.703125 18.742188 25.933594 18.949219 25.03125 C 19.585938 22.296875 19.9375 18.660156 19.9375 14.792969 C 19.9375 10.925781 19.585938 7.289062 18.949219 4.550781 C 18.742188 3.648438 18.507812 2.878906 18.253906 2.253906 C 18.734375 1.0625 19.292969 0.382812 19.882812 0.382812 Z M 16.519531 0.382812 C 17.109375 0.382812 17.664062 1.0625 18.148438 2.253906 C 17.894531 2.878906 17.660156 3.648438 17.449219 4.550781 C 16.960938 6.664062 16.640625 9.316406 16.519531 12.195312 C 16.398438 9.316406 16.078125 6.664062 15.585938 4.550781 C 15.375 3.648438 15.140625 2.878906 14.890625 2.253906 C 15.371094 1.0625 15.925781 0.382812 16.519531 0.382812 Z M 13.152344 0.382812 C 13.746094 0.382812 14.300781 1.0625 14.78125 2.253906 C 14.53125 2.878906 14.296875 3.648438 14.085938 4.550781 C 13.832031 5.640625 13.625 6.875 13.464844 8.207031 C 13.308594 6.875 13.101562 5.640625 12.847656 4.550781 C 12.550781 3.289062 12.210938 2.285156 11.839844 1.566406 C 12.242188 0.808594 12.6875 0.382812 13.152344 0.382812 Z M 11.726562 1.566406 C 11.355469 2.285156 11.015625 3.289062 10.71875 4.550781 C 10.230469 6.664062 9.910156 9.316406 9.789062 12.195312 C 9.667969 9.316406 9.347656 6.664062 8.855469 4.550781 C 8.734375 4.035156 8.605469 3.5625 8.472656 3.132812 C 9.015625 1.40625 9.6875 0.382812 10.414062 0.382812 C 10.878906 0.382812 11.324219 0.808594 11.726562 1.566406 Z M 11.726562 1.566406 " fill-opacity="1" fill-rule="nonzero"/></g><g fill="#ff00ff" fill-opacity="1"><g transform="translate(37.233433, 28.37717)"><g><path d="M 0.730469 -10.230469 L 0.730469 -8.476562 L 3.359375 -8.476562 L 3.359375 0 L 5.113281 0 L 5.113281 -8.476562 L 7.746094 -8.476562 L 7.746094 -10.230469 Z M 0.730469 -10.230469 "/></g></g></g><g fill="#ff00ff" fill-opacity="1"><g transform="translate(47.257276, 28.37717)"><g><path d="M 0.730469 -10.230469 L 0.730469 0 L 7.746094 0 L 7.746094 -1.753906 L 2.484375 -1.753906 L 2.484375 -4.238281 L 5.992188 -4.238281 L 5.992188 -5.992188 L 2.484375 -5.992188 L 2.484375 -8.476562 L 7.746094 -8.476562 L 7.746094 -10.230469 Z M 0.730469 -10.230469 "/></g></g></g><g fill="#ff00ff" fill-opacity="1"><g transform="translate(57.295731, 28.37717)"><g><path d="M 0.730469 -8.476562 L 0.730469 -1.753906 L 2.484375 -1.753906 L 2.484375 0 L 5.992188 0 L 5.992188 -1.753906 L 2.484375 -1.753906 L 2.484375 -8.476562 Z M 2.484375 -10.230469 L 2.484375 -8.476562 L 5.992188 -8.476562 L 5.992188 -6.722656 L 7.746094 -6.722656 L 7.746094 -8.476562 L 5.992188 -8.476562 L 5.992188 -10.230469 Z M 7.746094 -1.753906 L 7.746094 -3.507812 L 5.992188 -3.507812 L 5.992188 -1.753906 Z M 7.746094 -1.753906 "/></g></g></g><g fill="#ff00ff" fill-opacity="1"><g transform="translate(67.319575, 28.37717)"><g><path d="M 0.730469 -10.230469 L 0.730469 0 L 2.484375 0 L 2.484375 -4.238281 L 5.992188 -4.238281 L 5.992188 0 L 7.746094 0 L 7.746094 -10.230469 L 5.992188 -10.230469 L 5.992188 -5.992188 L 2.484375 -5.992188 L 2.484375 -10.230469 Z M 0.730469 -10.230469 "/></g></g></g><g fill="#00ffff" fill-opacity="1"><g transform="translate(38.68684, 28.739545)"><g><path d="M 0.730469 -10.230469 L 0.730469 -8.476562 L 3.359375 -8.476562 L 3.359375 0 L 5.113281 0 L 5.113281 -8.476562 L 7.746094 -8.476562 L 7.746094 -10.230469 Z M 0.730469 -10.230469 "/></g></g></g><g fill="#00ffff" fill-opacity="1"><g transform="translate(48.710682, 28.739545)"><g><path d="M 0.730469 -10.230469 L 0.730469 0 L 7.746094 0 L 7.746094 -1.753906 L 2.484375 -1.753906 L 2.484375 -4.238281 L 5.992188 -4.238281 L 5.992188 -5.992188 L 2.484375 -5.992188 L 2.484375 -8.476562 L 7.746094 -8.476562 L 7.746094 -10.230469 Z M 0.730469 -10.230469 "/></g></g></g><g fill="#00ffff" fill-opacity="1"><g transform="translate(58.749137, 28.739545)"><g><path d="M 0.730469 -8.476562 L 0.730469 -1.753906 L 2.484375 -1.753906 L 2.484375 0 L 5.992188 0 L 5.992188 -1.753906 L 2.484375 -1.753906 L 2.484375 -8.476562 Z M 2.484375 -10.230469 L 2.484375 -8.476562 L 5.992188 -8.476562 L 5.992188 -6.722656 L 7.746094 -6.722656 L 7.746094 -8.476562 L 5.992188 -8.476562 L 5.992188 -10.230469 Z M 7.746094 -1.753906 L 7.746094 -3.507812 L 5.992188 -3.507812 L 5.992188 -1.753906 Z M 7.746094 -1.753906 "/></g></g></g><g fill="#00ffff" fill-opacity="1"><g transform="translate(68.772981, 28.739545)"><g><path d="M 0.730469 -10.230469 L 0.730469 0 L 2.484375 0 L 2.484375 -4.238281 L 5.992188 -4.238281 L 5.992188 0 L 7.746094 0 L 7.746094 -10.230469 L 5.992188 -10.230469 L 5.992188 -5.992188 L 2.484375 -5.992188 L 2.484375 -10.230469 Z M 0.730469 -10.230469 "/></g></g></g><g fill="#ffffff" fill-opacity="1"><g transform="translate(37.960137, 28.558357)"><g><path d="M 0.730469 -10.230469 L 0.730469 -8.476562 L 3.359375 -8.476562 L 3.359375 0 L 5.113281 0 L 5.113281 -8.476562 L 7.746094 -8.476562 L 7.746094 -10.230469 Z M 0.730469 -10.230469 "/></g></g></g><g fill="#ffffff" fill-opacity="1"><g transform="translate(47.983979, 28.558357)"><g><path d="M 0.730469 -10.230469 L 0.730469 0 L 7.746094 0 L 7.746094 -1.753906 L 2.484375 -1.753906 L 2.484375 -4.238281 L 5.992188 -4.238281 L 5.992188 -5.992188 L 2.484375 -5.992188 L 2.484375 -8.476562 L 7.746094 -8.476562 L 7.746094 -10.230469 Z M 0.730469 -10.230469 "/></g></g></g><g fill="#ffffff" fill-opacity="1"><g transform="translate(58.022434, 28.558357)"><g><path d="M 0.730469 -8.476562 L 0.730469 -1.753906 L 2.484375 -1.753906 L 2.484375 0 L 5.992188 0 L 5.992188 -1.753906 L 2.484375 -1.753906 L 2.484375 -8.476562 Z M 2.484375 -10.230469 L 2.484375 -8.476562 L 5.992188 -8.476562 L 5.992188 -6.722656 L 7.746094 -6.722656 L 7.746094 -8.476562 L 5.992188 -8.476562 L 5.992188 -10.230469 Z M 7.746094 -1.753906 L 7.746094 -3.507812 L 5.992188 -3.507812 L 5.992188 -1.753906 Z M 7.746094 -1.753906 "/></g></g></g><g fill="#ffffff" fill-opacity="1"><g transform="translate(68.046278, 28.558357)"><g><path d="M 0.730469 -10.230469 L 0.730469 0 L 2.484375 0 L 2.484375 -4.238281 L 5.992188 -4.238281 L 5.992188 0 L 7.746094 0 L 7.746094 -10.230469 L 5.992188 -10.230469 L 5.992188 -5.992188 L 2.484375 -5.992188 L 2.484375 -10.230469 Z M 0.730469 -10.230469 "/></g></g></g><g clip-path="url(#bbb7aeaf5a)"><path fill="#ffffff" d="M 23.148438 0.0546875 C 22.417969 0.0546875 21.726562 1 21.152344 2.746094 C 20.578125 1 19.886719 0.0546875 19.160156 0.0546875 C 18.230469 0.0546875 17.367188 1.574219 16.726562 4.332031 C 16.089844 7.070312 15.738281 10.707031 15.738281 14.574219 C 15.738281 18.441406 16.089844 22.078125 16.726562 24.8125 C 17.367188 27.570312 18.230469 29.089844 19.160156 29.089844 C 19.886719 29.089844 20.578125 28.148438 21.152344 26.398438 C 21.726562 28.148438 22.417969 29.089844 23.148438 29.089844 C 23.628906 29.089844 24.09375 28.679688 24.519531 27.902344 C 24.945312 28.679688 25.40625 29.089844 25.890625 29.089844 C 26.492188 29.089844 27.066406 28.449219 27.570312 27.242188 C 28.078125 28.449219 28.652344 29.089844 29.253906 29.089844 C 29.855469 29.089844 30.429688 28.449219 30.9375 27.242188 C 31.441406 28.449219 32.015625 29.089844 32.617188 29.089844 C 33.546875 29.089844 34.410156 27.570312 35.050781 24.8125 C 35.6875 22.078125 36.039062 18.441406 36.039062 14.574219 C 36.039062 10.707031 35.6875 7.070312 35.050781 4.332031 C 34.410156 1.574219 33.546875 0.0546875 32.617188 0.0546875 C 32.015625 0.0546875 31.441406 0.695312 30.9375 1.902344 C 30.429688 0.695312 29.855469 0.0546875 29.253906 0.0546875 C 28.652344 0.0546875 28.078125 0.695312 27.570312 1.902344 C 27.066406 0.695312 26.492188 0.0546875 25.890625 0.0546875 C 25.40625 0.0546875 24.945312 0.464844 24.519531 1.242188 C 24.09375 0.464844 23.628906 0.0546875 23.148438 0.0546875 Z M 19.160156 28.980469 C 17.332031 28.980469 15.847656 22.515625 15.847656 14.574219 C 15.847656 6.628906 17.332031 0.164062 19.160156 0.164062 C 19.882812 0.164062 20.554688 1.183594 21.101562 2.914062 C 20.964844 3.339844 20.835938 3.816406 20.71875 4.332031 C 20.082031 7.070312 19.730469 10.707031 19.730469 14.574219 C 19.730469 18.441406 20.082031 22.078125 20.71875 24.8125 C 20.835938 25.328125 20.964844 25.804688 21.101562 26.234375 C 20.554688 27.960938 19.882812 28.980469 19.160156 28.980469 Z M 26.460938 14.574219 C 26.460938 16.550781 26.367188 18.433594 26.203125 20.152344 C 26.035156 18.433594 25.945312 16.550781 25.945312 14.574219 C 25.945312 12.59375 26.035156 10.710938 26.203125 8.992188 C 26.367188 10.710938 26.460938 12.59375 26.460938 14.574219 Z M 26.257812 8.464844 C 26.539062 5.835938 27 3.640625 27.570312 2.167969 C 28.546875 4.679688 29.199219 9.300781 29.199219 14.574219 C 29.199219 19.84375 28.546875 24.464844 27.570312 26.976562 C 27 25.503906 26.539062 23.308594 26.257812 20.683594 C 26.460938 18.792969 26.570312 16.71875 26.570312 14.574219 C 26.570312 12.425781 26.460938 10.351562 26.257812 8.464844 Z M 25.835938 14.574219 C 25.835938 16.71875 25.941406 18.792969 26.148438 20.683594 C 25.8125 23.773438 25.234375 26.269531 24.519531 27.6875 C 23.375 25.417969 22.578125 20.394531 22.578125 14.574219 C 22.578125 8.753906 23.375 3.726562 24.519531 1.457031 C 25.234375 2.875 25.8125 5.371094 26.148438 8.464844 C 25.941406 10.351562 25.835938 12.425781 25.835938 14.574219 Z M 21.152344 3.085938 C 21.953125 5.71875 22.46875 9.886719 22.46875 14.574219 C 22.46875 19.257812 21.953125 23.425781 21.152344 26.0625 C 20.355469 23.425781 19.839844 19.257812 19.839844 14.574219 C 19.839844 9.886719 20.355469 5.71875 21.152344 3.085938 Z M 23.148438 28.980469 C 22.425781 28.980469 21.753906 27.960938 21.207031 26.234375 C 21.34375 25.804688 21.46875 25.328125 21.589844 24.8125 C 22.082031 22.699219 22.402344 20.046875 22.523438 17.167969 C 22.644531 20.046875 22.964844 22.699219 23.457031 24.8125 C 23.75 26.078125 24.089844 27.078125 24.464844 27.796875 C 24.058594 28.558594 23.617188 28.980469 23.148438 28.980469 Z M 25.890625 28.980469 C 25.421875 28.980469 24.976562 28.558594 24.574219 27.796875 C 24.949219 27.078125 25.289062 26.078125 25.582031 24.8125 C 25.835938 23.722656 26.042969 22.488281 26.203125 21.15625 C 26.359375 22.488281 26.566406 23.722656 26.820312 24.8125 C 27.03125 25.714844 27.265625 26.484375 27.515625 27.113281 C 27.035156 28.300781 26.480469 28.980469 25.890625 28.980469 Z M 29.253906 28.980469 C 28.664062 28.980469 28.105469 28.300781 27.625 27.113281 C 27.878906 26.484375 28.113281 25.714844 28.320312 24.8125 C 28.8125 22.699219 29.132812 20.046875 29.253906 17.167969 C 29.375 20.046875 29.695312 22.699219 30.1875 24.8125 C 30.398438 25.714844 30.628906 26.484375 30.882812 27.113281 C 30.402344 28.300781 29.84375 28.980469 29.253906 28.980469 Z M 29.308594 14.574219 C 29.308594 9.300781 29.960938 4.679688 30.9375 2.167969 C 31.910156 4.679688 32.566406 9.300781 32.566406 14.574219 C 32.566406 19.84375 31.910156 24.464844 30.9375 26.976562 C 29.960938 24.464844 29.308594 19.84375 29.308594 14.574219 Z M 32.617188 0.164062 C 34.445312 0.164062 35.929688 6.628906 35.929688 14.574219 C 35.929688 22.515625 34.445312 28.980469 32.617188 28.980469 C 32.027344 28.980469 31.472656 28.300781 30.992188 27.113281 C 31.242188 26.484375 31.476562 25.714844 31.6875 24.8125 C 32.324219 22.078125 32.671875 18.441406 32.671875 14.574219 C 32.671875 10.707031 32.324219 7.070312 31.6875 4.332031 C 31.476562 3.429688 31.242188 2.660156 30.992188 2.03125 C 31.472656 0.84375 32.027344 0.164062 32.617188 0.164062 Z M 29.253906 0.164062 C 29.84375 0.164062 30.402344 0.84375 30.882812 2.03125 C 30.628906 2.660156 30.398438 3.429688 30.1875 4.332031 C 29.695312 6.445312 29.375 9.097656 29.253906 11.976562 C 29.132812 9.097656 28.8125 6.445312 28.320312 4.332031 C 28.113281 3.429688 27.878906 2.660156 27.625 2.03125 C 28.105469 0.84375 28.664062 0.164062 29.253906 0.164062 Z M 25.890625 0.164062 C 26.480469 0.164062 27.035156 0.84375 27.515625 2.03125 C 27.265625 2.660156 27.03125 3.429688 26.820312 4.332031 C 26.566406 5.421875 26.359375 6.65625 26.203125 7.988281 C 26.042969 6.65625 25.835938 5.421875 25.582031 4.332031 C 25.289062 3.070312 24.945312 2.066406 24.574219 1.347656 C 24.976562 0.585938 25.421875 0.164062 25.890625 0.164062 Z M 24.464844 1.347656 C 24.089844 2.066406 23.75 3.070312 23.457031 4.332031 C 22.964844 6.445312 22.644531 9.097656 22.523438 11.976562 C 22.402344 9.097656 22.082031 6.445312 21.589844 4.332031 C 21.46875 3.816406 21.34375 3.339844 21.207031 2.914062 C 21.753906 1.183594 22.425781 0.164062 23.148438 0.164062 C 23.617188 0.164062 24.058594 0.585938 24.464844 1.347656 Z M 24.464844 1.347656 " fill-opacity="1" fill-rule="nonzero"/></g><g clip-path="url(#9ae85363a0)"><path fill="#ffffff" d="M 40.4375 0.128906 C 39.710938 0.128906 39.019531 1.070312 38.445312 2.820312 C 37.871094 1.070312 37.179688 0.128906 36.449219 0.128906 C 35.523438 0.128906 34.65625 1.648438 34.015625 4.40625 C 33.378906 7.140625 33.027344 10.777344 33.027344 14.644531 C 33.027344 18.511719 33.378906 22.148438 34.015625 24.886719 C 34.65625 27.644531 35.523438 29.164062 36.449219 29.164062 C 37.179688 29.164062 37.871094 28.21875 38.445312 26.472656 C 39.019531 28.21875 39.710938 29.164062 40.4375 29.164062 C 40.921875 29.164062 41.382812 28.753906 41.808594 27.976562 C 42.234375 28.753906 42.695312 29.164062 43.179688 29.164062 C 43.78125 29.164062 44.355469 28.523438 44.859375 27.316406 C 45.367188 28.523438 45.941406 29.164062 46.542969 29.164062 C 47.144531 29.164062 47.71875 28.523438 48.226562 27.316406 C 48.730469 28.523438 49.304688 29.164062 49.90625 29.164062 C 50.835938 29.164062 51.699219 27.644531 52.339844 24.886719 C 52.976562 22.148438 53.328125 18.511719 53.328125 14.644531 C 53.328125 10.777344 52.976562 7.140625 52.339844 4.40625 C 51.699219 1.648438 50.835938 0.128906 49.90625 0.128906 C 49.304688 0.128906 48.730469 0.769531 48.226562 1.972656 C 47.71875 0.769531 47.144531 0.128906 46.542969 0.128906 C 45.941406 0.128906 45.367188 0.769531 44.859375 1.972656 C 44.355469 0.769531 43.78125 0.128906 43.179688 0.128906 C 42.695312 0.128906 42.234375 0.539062 41.808594 1.316406 C 41.382812 0.539062 40.921875 0.128906 40.4375 0.128906 Z M 36.449219 29.054688 C 34.621094 29.054688 33.136719 22.589844 33.136719 14.644531 C 33.136719 6.699219 34.625 0.238281 36.449219 0.238281 C 37.171875 0.238281 37.84375 1.257812 38.390625 2.984375 C 38.253906 3.414062 38.128906 3.886719 38.007812 4.40625 C 37.371094 7.140625 37.019531 10.777344 37.019531 14.644531 C 37.019531 18.511719 37.371094 22.148438 38.007812 24.886719 C 38.128906 25.402344 38.253906 25.878906 38.390625 26.304688 C 37.84375 28.035156 37.171875 29.054688 36.449219 29.054688 Z M 43.75 14.644531 C 43.75 16.621094 43.65625 18.507812 43.492188 20.226562 C 43.324219 18.507812 43.234375 16.621094 43.234375 14.644531 C 43.234375 12.667969 43.324219 10.785156 43.492188 9.066406 C 43.65625 10.785156 43.75 12.667969 43.75 14.644531 Z M 43.546875 8.535156 C 43.828125 5.910156 44.289062 3.714844 44.859375 2.242188 C 45.835938 4.753906 46.488281 9.375 46.488281 14.644531 C 46.488281 19.917969 45.835938 24.539062 44.859375 27.050781 C 44.289062 25.578125 43.828125 23.382812 43.546875 20.753906 C 43.75 18.867188 43.859375 16.792969 43.859375 14.644531 C 43.859375 12.5 43.75 10.425781 43.546875 8.535156 Z M 43.125 14.644531 C 43.125 16.792969 43.230469 18.867188 43.4375 20.753906 C 43.101562 23.847656 42.523438 26.34375 41.808594 27.761719 C 40.664062 25.492188 39.867188 20.464844 39.867188 14.644531 C 39.867188 8.824219 40.664062 3.800781 41.808594 1.53125 C 42.523438 2.949219 43.101562 5.445312 43.4375 8.535156 C 43.230469 10.425781 43.125 12.5 43.125 14.644531 Z M 38.445312 3.15625 C 39.242188 5.789062 39.757812 9.960938 39.757812 14.644531 C 39.757812 19.332031 39.242188 23.5 38.445312 26.132812 C 37.644531 23.5 37.128906 19.332031 37.128906 14.644531 C 37.128906 9.960938 37.644531 5.789062 38.445312 3.15625 Z M 40.4375 29.054688 C 39.714844 29.054688 39.042969 28.035156 38.496094 26.304688 C 38.632812 25.878906 38.761719 25.402344 38.878906 24.886719 C 39.371094 22.773438 39.691406 20.121094 39.8125 17.242188 C 39.933594 20.121094 40.253906 22.773438 40.746094 24.886719 C 41.039062 26.148438 41.378906 27.152344 41.753906 27.871094 C 41.351562 28.632812 40.90625 29.054688 40.4375 29.054688 Z M 43.179688 29.054688 C 42.710938 29.054688 42.265625 28.632812 41.863281 27.871094 C 42.238281 27.152344 42.578125 26.148438 42.871094 24.886719 C 43.125 23.796875 43.332031 22.5625 43.492188 21.230469 C 43.648438 22.5625 43.855469 23.796875 44.109375 24.886719 C 44.320312 25.789062 44.554688 26.558594 44.808594 27.1875 C 44.324219 28.375 43.769531 29.054688 43.179688 29.054688 Z M 46.542969 29.054688 C 45.953125 29.054688 45.394531 28.375 44.914062 27.1875 C 45.167969 26.558594 45.402344 25.789062 45.609375 24.886719 C 46.101562 22.773438 46.421875 20.121094 46.542969 17.242188 C 46.664062 20.121094 46.984375 22.773438 47.476562 24.886719 C 47.683594 25.789062 47.917969 26.558594 48.171875 27.1875 C 47.691406 28.375 47.132812 29.054688 46.542969 29.054688 Z M 46.597656 14.644531 C 46.597656 9.375 47.25 4.753906 48.226562 2.242188 C 49.199219 4.753906 49.851562 9.375 49.851562 14.644531 C 49.851562 19.917969 49.199219 24.539062 48.226562 27.050781 C 47.25 24.539062 46.597656 19.917969 46.597656 14.644531 Z M 49.90625 0.238281 C 51.734375 0.238281 53.21875 6.703125 53.21875 14.644531 C 53.21875 22.589844 51.734375 29.054688 49.90625 29.054688 C 49.316406 29.054688 48.761719 28.375 48.28125 27.1875 C 48.53125 26.558594 48.765625 25.789062 48.976562 24.886719 C 49.613281 22.148438 49.960938 18.511719 49.960938 14.644531 C 49.960938 10.777344 49.613281 7.140625 48.976562 4.40625 C 48.765625 3.503906 48.53125 2.734375 48.28125 2.105469 C 48.761719 0.917969 49.316406 0.238281 49.90625 0.238281 Z M 46.542969 0.238281 C 47.132812 0.238281 47.691406 0.917969 48.171875 2.105469 C 47.917969 2.734375 47.683594 3.503906 47.476562 4.40625 C 46.984375 6.519531 46.664062 9.171875 46.542969 12.046875 C 46.421875 9.171875 46.101562 6.519531 45.609375 4.40625 C 45.402344 3.503906 45.167969 2.734375 44.914062 2.105469 C 45.394531 0.917969 45.953125 0.238281 46.542969 0.238281 Z M 43.179688 0.238281 C 43.769531 0.238281 44.324219 0.917969 44.804688 2.105469 C 44.554688 2.734375 44.320312 3.503906 44.109375 4.40625 C 43.855469 5.496094 43.648438 6.730469 43.492188 8.0625 C 43.332031 6.730469 43.125 5.496094 42.871094 4.40625 C 42.578125 3.140625 42.238281 2.140625 41.863281 1.421875 C 42.265625 0.660156 42.710938 0.238281 43.179688 0.238281 Z M 41.753906 1.421875 C 41.378906 2.140625 41.039062 3.140625 40.746094 4.40625 C 40.253906 6.519531 39.933594 9.171875 39.8125 12.046875 C 39.691406 9.171875 39.371094 6.519531 38.882812 4.40625 C 38.761719 3.886719 38.632812 3.414062 38.496094 2.984375 C 39.042969 1.257812 39.714844 0.238281 40.4375 0.238281 C 40.90625 0.238281 41.351562 0.660156 41.753906 1.421875 Z M 41.753906 1.421875 " fill-opacity="1" fill-rule="nonzero"/></g><g clip-path="url(#8065082640)"><path fill="#ffffff" d="M 55.398438 0.128906 C 54.667969 0.128906 53.976562 1.070312 53.402344 2.820312 C 52.828125 1.070312 52.136719 0.128906 51.40625 0.128906 C 50.480469 0.128906 49.617188 1.648438 48.972656 4.40625 C 48.335938 7.140625 47.988281 10.777344 47.988281 14.644531 C 47.988281 18.511719 48.335938 22.148438 48.972656 24.886719 C 49.617188 27.644531 50.480469 29.164062 51.40625 29.164062 C 52.136719 29.164062 52.828125 28.21875 53.402344 26.472656 C 53.976562 28.21875 54.667969 29.164062 55.398438 29.164062 C 55.878906 29.164062 56.34375 28.753906 56.765625 27.976562 C 57.191406 28.753906 57.65625 29.164062 58.136719 29.164062 C 58.738281 29.164062 59.3125 28.523438 59.820312 27.316406 C 60.324219 28.523438 60.898438 29.164062 61.5 29.164062 C 62.101562 29.164062 62.679688 28.523438 63.183594 27.316406 C 63.6875 28.523438 64.265625 29.164062 64.867188 29.164062 C 65.792969 29.164062 66.65625 27.644531 67.296875 24.886719 C 67.933594 22.148438 68.285156 18.511719 68.285156 14.644531 C 68.285156 10.777344 67.933594 7.140625 67.296875 4.40625 C 66.65625 1.648438 65.792969 0.128906 64.867188 0.128906 C 64.265625 0.128906 63.6875 0.769531 63.183594 1.972656 C 62.679688 0.769531 62.101562 0.128906 61.5 0.128906 C 60.898438 0.128906 60.324219 0.769531 59.820312 1.972656 C 59.3125 0.769531 58.738281 0.128906 58.136719 0.128906 C 57.65625 0.128906 57.191406 0.539062 56.765625 1.316406 C 56.34375 0.539062 55.878906 0.128906 55.398438 0.128906 Z M 51.40625 29.054688 C 49.582031 29.054688 48.097656 22.589844 48.097656 14.644531 C 48.097656 6.699219 49.582031 0.238281 51.40625 0.238281 C 52.132812 0.238281 52.804688 1.257812 53.347656 2.984375 C 53.214844 3.414062 53.085938 3.886719 52.964844 4.40625 C 52.328125 7.140625 51.976562 10.777344 51.976562 14.644531 C 51.976562 18.511719 52.328125 22.148438 52.964844 24.886719 C 53.085938 25.402344 53.214844 25.878906 53.347656 26.304688 C 52.804688 28.035156 52.132812 29.054688 51.40625 29.054688 Z M 58.707031 14.644531 C 58.707031 16.621094 58.617188 18.507812 58.449219 20.226562 C 58.28125 18.507812 58.191406 16.621094 58.191406 14.644531 C 58.191406 12.667969 58.28125 10.785156 58.449219 9.066406 C 58.617188 10.785156 58.707031 12.667969 58.707031 14.644531 Z M 58.503906 8.535156 C 58.789062 5.910156 59.25 3.714844 59.820312 2.242188 C 60.792969 4.753906 61.445312 9.375 61.445312 14.644531 C 61.445312 19.917969 60.792969 24.539062 59.820312 27.050781 C 59.25 25.578125 58.789062 23.382812 58.503906 20.753906 C 58.707031 18.867188 58.816406 16.792969 58.816406 14.644531 C 58.816406 12.5 58.707031 10.425781 58.503906 8.535156 Z M 58.082031 14.644531 C 58.082031 16.792969 58.191406 18.867188 58.394531 20.753906 C 58.0625 23.847656 57.480469 26.34375 56.765625 27.761719 C 55.625 25.492188 54.824219 20.464844 54.824219 14.644531 C 54.824219 8.824219 55.625 3.800781 56.765625 1.53125 C 57.480469 2.949219 58.0625 5.445312 58.394531 8.535156 C 58.191406 10.425781 58.082031 12.5 58.082031 14.644531 Z M 53.402344 3.15625 C 54.199219 5.789062 54.71875 9.960938 54.71875 14.644531 C 54.71875 19.332031 54.199219 23.5 53.402344 26.132812 C 52.605469 23.5 52.085938 19.332031 52.085938 14.644531 C 52.085938 9.960938 52.605469 5.789062 53.402344 3.15625 Z M 55.398438 29.054688 C 54.671875 29.054688 54 28.035156 53.457031 26.304688 C 53.589844 25.878906 53.71875 25.402344 53.839844 24.886719 C 54.332031 22.773438 54.652344 20.121094 54.769531 17.242188 C 54.890625 20.121094 55.210938 22.773438 55.703125 24.886719 C 55.996094 26.148438 56.339844 27.152344 56.710938 27.871094 C 56.308594 28.632812 55.863281 29.054688 55.398438 29.054688 Z M 58.136719 29.054688 C 57.667969 29.054688 57.226562 28.632812 56.824219 27.871094 C 57.195312 27.152344 57.535156 26.148438 57.828125 24.886719 C 58.082031 23.796875 58.289062 22.5625 58.449219 21.230469 C 58.609375 22.5625 58.816406 23.796875 59.070312 24.886719 C 59.277344 25.789062 59.511719 26.558594 59.765625 27.1875 C 59.285156 28.375 58.726562 29.054688 58.136719 29.054688 Z M 61.5 29.054688 C 60.910156 29.054688 60.355469 28.375 59.871094 27.1875 C 60.125 26.558594 60.359375 25.789062 60.570312 24.886719 C 61.0625 22.773438 61.378906 20.121094 61.5 17.242188 C 61.621094 20.121094 61.941406 22.773438 62.433594 24.886719 C 62.644531 25.789062 62.878906 26.558594 63.128906 27.1875 C 62.648438 28.375 62.09375 29.054688 61.5 29.054688 Z M 61.554688 14.644531 C 61.554688 9.375 62.210938 4.753906 63.183594 2.242188 C 64.15625 4.753906 64.8125 9.375 64.8125 14.644531 C 64.8125 19.917969 64.15625 24.539062 63.183594 27.050781 C 62.210938 24.539062 61.554688 19.917969 61.554688 14.644531 Z M 64.867188 0.238281 C 66.691406 0.238281 68.175781 6.703125 68.175781 14.644531 C 68.175781 22.589844 66.691406 29.054688 64.867188 29.054688 C 64.273438 29.054688 63.71875 28.375 63.238281 27.1875 C 63.488281 26.558594 63.722656 25.789062 63.933594 24.886719 C 64.570312 22.148438 64.921875 18.511719 64.921875 14.644531 C 64.921875 10.777344 64.570312 7.140625 63.933594 4.40625 C 63.722656 3.503906 63.488281 2.734375 63.238281 2.105469 C 63.71875 0.917969 64.273438 0.238281 64.867188 0.238281 Z M 61.5 0.238281 C 62.09375 0.238281 62.648438 0.917969 63.128906 2.105469 C 62.878906 2.734375 62.644531 3.503906 62.433594 4.40625 C 61.941406 6.519531 61.621094 9.171875 61.5 12.046875 C 61.378906 9.171875 61.0625 6.519531 60.570312 4.40625 C 60.359375 3.503906 60.125 2.734375 59.871094 2.105469 C 60.355469 0.917969 60.910156 0.238281 61.5 0.238281 Z M 58.136719 0.238281 C 58.726562 0.238281 59.285156 0.917969 59.765625 2.105469 C 59.511719 2.734375 59.277344 3.503906 59.070312 4.40625 C 58.816406 5.496094 58.609375 6.730469 58.449219 8.0625 C 58.289062 6.730469 58.082031 5.496094 57.828125 4.40625 C 57.535156 3.140625 57.195312 2.140625 56.824219 1.421875 C 57.226562 0.660156 57.671875 0.238281 58.136719 0.238281 Z M 56.710938 1.421875 C 56.339844 2.140625 56 3.140625 55.703125 4.40625 C 55.210938 6.519531 54.890625 9.171875 54.773438 12.046875 C 54.652344 9.171875 54.332031 6.519531 53.839844 4.40625 C 53.71875 3.886719 53.589844 3.414062 53.457031 2.984375 C 54 1.257812 54.671875 0.238281 55.398438 0.238281 C 55.863281 0.238281 56.308594 0.660156 56.710938 1.421875 Z M 56.710938 1.421875 " fill-opacity="1" fill-rule="nonzero"/></g><path fill="#ffffff" d="M 71.875 14.480469 L 71.488281 14.269531 C 71.40625 14.421875 71.335938 14.5625 71.28125 14.699219 L 71.691406 14.859375 C 71.738281 14.742188 71.800781 14.617188 71.875 14.480469 Z M 71.875 14.480469 " fill-opacity="1" fill-rule="nonzero"/><path fill="#ffffff" d="M 72.34375 13.746094 L 71.984375 13.492188 C 71.898438 13.617188 71.8125 13.742188 71.730469 13.871094 L 72.097656 14.109375 C 72.179688 13.988281 72.261719 13.863281 72.34375 13.746094 Z M 72.34375 13.746094 " fill-opacity="1" fill-rule="nonzero"/><path fill="#ffffff" d="M 72.859375 12.996094 L 72.484375 12.761719 C 72.410156 12.878906 72.328125 13 72.242188 13.125 L 72.601562 13.375 C 72.695312 13.246094 72.78125 13.117188 72.859375 12.996094 Z M 72.859375 12.996094 " fill-opacity="1" fill-rule="nonzero"/><path fill="#ffffff" d="M 73.296875 12.183594 L 72.898438 11.992188 C 72.835938 12.125 72.769531 12.253906 72.699219 12.382812 L 73.089844 12.59375 C 73.160156 12.457031 73.230469 12.320312 73.296875 12.183594 Z M 73.296875 12.183594 " fill-opacity="1" fill-rule="nonzero"/><path fill="#ffffff" d="M 73.65625 11.339844 L 73.242188 11.183594 C 73.191406 11.320312 73.136719 11.457031 73.078125 11.59375 L 73.484375 11.765625 C 73.542969 11.625 73.601562 11.480469 73.65625 11.339844 Z M 73.65625 11.339844 " fill-opacity="1" fill-rule="nonzero"/><path fill="#ffffff" d="M 74.191406 9.105469 C 74.203125 8.957031 74.210938 8.816406 74.210938 8.679688 L 74.210938 8.636719 L 73.769531 8.640625 L 73.769531 8.679688 C 73.769531 8.804688 73.761719 8.933594 73.753906 9.066406 Z M 74.191406 9.105469 " fill-opacity="1" fill-rule="nonzero"/><path fill="#ffffff" d="M 73.667969 7.800781 C 73.699219 7.9375 73.726562 8.078125 73.742188 8.214844 L 74.179688 8.164062 C 74.160156 8.007812 74.132812 7.851562 74.097656 7.699219 Z M 73.667969 7.800781 " fill-opacity="1" fill-rule="nonzero"/><path fill="#ffffff" d="M 73.382812 7 C 73.445312 7.128906 73.5 7.261719 73.550781 7.394531 L 73.964844 7.246094 C 73.910156 7.097656 73.847656 6.949219 73.78125 6.808594 Z M 73.382812 7 " fill-opacity="1" fill-rule="nonzero"/><path fill="#ffffff" d="M 72.933594 6.285156 C 73.019531 6.398438 73.101562 6.511719 73.179688 6.632812 L 73.550781 6.398438 C 73.46875 6.265625 73.375 6.136719 73.277344 6.011719 Z M 72.933594 6.285156 " fill-opacity="1" fill-rule="nonzero"/><path fill="#ffffff" d="M 72.335938 5.679688 C 72.445312 5.769531 72.550781 5.867188 72.648438 5.96875 L 72.964844 5.660156 C 72.855469 5.546875 72.738281 5.441406 72.617188 5.339844 Z M 72.335938 5.679688 " fill-opacity="1" fill-rule="nonzero"/><g clip-path="url(#d275efc844)"><path fill="#ffffff" d="M 72.238281 5.058594 C 72.113281 4.972656 71.976562 4.890625 71.835938 4.816406 L 71.628906 5.203125 C 71.753906 5.269531 71.878906 5.34375 71.996094 5.421875 Z M 72.238281 5.058594 " fill-opacity="1" fill-rule="nonzero"/></g><g clip-path="url(#ae877082ad)"><path fill="#ffffff" d="M 71.414062 4.613281 C 71.273438 4.550781 71.125 4.496094 70.976562 4.449219 L 70.839844 4.871094 C 70.980469 4.914062 71.113281 4.960938 71.242188 5.019531 Z M 71.414062 4.613281 " fill-opacity="1" fill-rule="nonzero"/></g><g clip-path="url(#cec1a1fbb3)"><path fill="#ffffff" d="M 70.003906 4.683594 C 70.148438 4.703125 70.289062 4.726562 70.425781 4.757812 L 70.523438 4.328125 C 70.371094 4.296875 70.214844 4.269531 70.0625 4.246094 Z M 70.003906 4.683594 " fill-opacity="1" fill-rule="nonzero"/></g><path fill="#ffffff" d="M 71.566406 15.851562 L 71.566406 15.835938 C 71.566406 15.585938 71.375 15.417969 71.136719 15.417969 L 67.59375 15.417969 C 67.355469 15.417969 67.164062 15.585938 67.164062 15.835938 L 67.164062 15.851562 C 67.164062 16.097656 67.355469 16.296875 67.59375 16.296875 L 71.136719 16.296875 C 71.375 16.296875 71.566406 16.097656 71.566406 15.851562 Z M 71.566406 15.851562 " fill-opacity="1" fill-rule="nonzero"/><g clip-path="url(#c8ae704a0e)"><path fill="#ffffff" d="M 67.769531 16.527344 C 67.558594 16.527344 67.382812 16.695312 67.382812 16.941406 L 67.382812 16.957031 C 67.382812 17.207031 67.558594 17.40625 67.769531 17.40625 L 70.960938 17.40625 C 71.171875 17.40625 71.347656 17.207031 71.347656 16.957031 L 71.347656 16.941406 C 71.347656 16.695312 71.171875 16.527344 70.960938 16.527344 Z M 67.769531 16.527344 " fill-opacity="1" fill-rule="nonzero"/></g><path fill="#ffffff" d="M 67.605469 9.480469 C 67.605469 10.453125 68.390625 11.242188 69.363281 11.242188 L 69.363281 7.71875 C 68.390625 7.71875 67.605469 8.507812 67.605469 9.480469 Z M 67.605469 9.480469 " fill-opacity="1" fill-rule="nonzero"/><g clip-path="url(#12f4c0f524)"><path fill="#ffffff" d="M 67.367188 15.238281 C 67.425781 15.222656 67.484375 15.210938 67.550781 15.210938 L 69.363281 15.210938 L 69.363281 12.5625 C 69.238281 12.5625 69.113281 12.550781 68.988281 12.539062 L 68.894531 12.078125 C 68.75 12.050781 68.609375 12.011719 68.472656 11.964844 L 68.160156 12.316406 C 67.925781 12.21875 67.710938 12.089844 67.511719 11.9375 L 67.65625 11.496094 C 67.546875 11.402344 67.445312 11.296875 67.351562 11.1875 L 66.90625 11.332031 C 66.757812 11.132812 66.628906 10.917969 66.527344 10.6875 L 66.878906 10.371094 C 66.832031 10.234375 66.792969 10.097656 66.769531 9.953125 L 66.28125 9.855469 L 66.28125 9.105469 L 66.765625 9.007812 C 66.792969 8.863281 66.832031 8.722656 66.878906 8.589844 L 66.527344 8.273438 C 66.625 8.039062 66.757812 7.824219 66.90625 7.625 L 67.351562 7.773438 C 67.445312 7.660156 67.546875 7.558594 67.65625 7.464844 L 67.511719 7.019531 C 67.710938 6.871094 67.925781 6.742188 68.160156 6.644531 L 68.472656 6.996094 C 68.609375 6.945312 68.75 6.910156 68.894531 6.882812 L 68.988281 6.421875 C 69.113281 6.40625 69.238281 6.398438 69.363281 6.398438 L 69.363281 4.421875 C 66.8125 4.421875 64.742188 6.265625 64.742188 8.679688 C 64.742188 9.8125 65.199219 11.367188 65.949219 12.691406 C 66.367188 13.433594 67.246094 14.375 67.367188 15.238281 Z M 67.367188 15.238281 " fill-opacity="1" fill-rule="nonzero"/></g><path fill="#ffffff" d="M 63.199219 16.085938 L 63.640625 16.085938 L 63.640625 16.527344 L 63.199219 16.527344 Z M 63.199219 16.085938 " fill-opacity="1" fill-rule="nonzero"/><g clip-path="url(#85ac3de85d)"><path fill="#ffffff" d="M 63.199219 16.964844 L 63.640625 16.964844 L 63.640625 17.40625 L 63.199219 17.40625 Z M 63.199219 16.964844 " fill-opacity="1" fill-rule="nonzero"/></g><path fill="#ffffff" d="M 63.640625 16.527344 L 64.082031 16.527344 L 64.082031 16.964844 L 63.640625 16.964844 Z M 63.640625 16.527344 " fill-opacity="1" fill-rule="nonzero"/><g clip-path="url(#74373e55ad)"><path fill="#ffffff" d="M 62.757812 16.527344 L 63.199219 16.527344 L 63.199219 16.964844 L 62.757812 16.964844 Z M 62.757812 16.527344 " fill-opacity="1" fill-rule="nonzero"/></g><g clip-path="url(#87a39ca35f)"><path fill="#ffffff" d="M 75.3125 4.195312 L 75.75 4.195312 L 75.75 4.636719 L 75.3125 4.636719 Z M 75.3125 4.195312 " fill-opacity="1" fill-rule="nonzero"/></g><path fill="#ffffff" d="M 75.3125 5.074219 L 75.75 5.074219 L 75.75 5.515625 L 75.3125 5.515625 Z M 75.3125 5.074219 " fill-opacity="1" fill-rule="nonzero"/><g clip-path="url(#d1b47e6e05)"><path fill="#ffffff" d="M 75.75 4.636719 L 76.191406 4.636719 L 76.191406 5.074219 L 75.75 5.074219 Z M 75.75 4.636719 " fill-opacity="1" fill-rule="nonzero"/></g><g clip-path="url(#a46bbe228f)"><path fill="#ffffff" d="M 74.871094 4.636719 L 75.3125 4.636719 L 75.3125 5.074219 L 74.871094 5.074219 Z M 74.871094 4.636719 " fill-opacity="1" fill-rule="nonzero"/></g><path fill="#ffffff" d="M 69.804688 6.398438 C 69.804688 6.683594 69.988281 6.925781 70.246094 7.015625 L 70.246094 8.160156 L 69.585938 8.160156 L 69.585938 10.800781 L 70.027344 10.800781 L 70.027344 11.683594 C 70.027344 11.804688 70.125 11.902344 70.246094 11.902344 L 70.90625 11.902344 L 70.90625 12.164062 C 70.652344 12.253906 70.464844 12.496094 70.464844 12.78125 C 70.464844 13.148438 70.761719 13.445312 71.125 13.445312 C 71.492188 13.445312 71.789062 13.148438 71.789062 12.78125 C 71.789062 12.496094 71.601562 12.253906 71.347656 12.164062 L 71.347656 11.683594 C 71.347656 11.558594 71.25 11.460938 71.125 11.460938 L 70.464844 11.460938 L 70.464844 10.800781 L 71.347656 10.800781 L 71.347656 10.359375 L 72.707031 10.359375 C 72.800781 10.617188 73.042969 10.800781 73.328125 10.800781 C 73.695312 10.800781 73.988281 10.503906 73.988281 10.140625 C 73.988281 9.777344 73.695312 9.480469 73.328125 9.480469 C 73.042969 9.480469 72.800781 9.664062 72.707031 9.921875 L 71.347656 9.921875 L 71.347656 9.039062 L 72.226562 9.039062 C 72.347656 9.039062 72.449219 8.941406 72.449219 8.820312 L 72.449219 7.898438 C 72.703125 7.808594 72.886719 7.566406 72.886719 7.277344 C 72.886719 6.914062 72.59375 6.617188 72.226562 6.617188 C 71.863281 6.617188 71.566406 6.914062 71.566406 7.277344 C 71.566406 7.566406 71.75 7.808594 72.007812 7.898438 L 72.007812 8.597656 L 71.347656 8.597656 L 71.347656 8.160156 L 70.6875 8.160156 L 70.6875 7.015625 C 70.941406 6.925781 71.125 6.683594 71.125 6.398438 C 71.125 6.03125 70.832031 5.738281 70.464844 5.738281 C 70.101562 5.738281 69.804688 6.03125 69.804688 6.398438 Z M 69.804688 6.398438 " fill-opacity="1" fill-rule="nonzero"/></svg>